<?xml version="1.0" encoding="UTF-8" standalone="no"?>
<!-- Created with Inkscape (http://www.inkscape.org/) -->

<svg
   width="512"
   height="512"
   viewBox="0 0 135.46666 135.46667"
   version="1.1"
   id="svg5"
   inkscape:version="1.1 (c68e22c387, 2021-05-23)"
   sodipodi:docname="puff-logo.svg"
   xmlns:inkscape="http://www.inkscape.org/namespaces/inkscape"
   xmlns:sodipodi="http://sodipodi.sourceforge.net/DTD/sodipodi-0.dtd"
   xmlns="http://www.w3.org/2000/svg"
   xmlns:svg="http://www.w3.org/2000/svg">
  <sodipodi:namedview
     id="namedview7"
     pagecolor="#505050"
     bordercolor="#eeeeee"
     borderopacity="1"
     inkscape:pageshadow="0"
     inkscape:pageopacity="0"
     inkscape:pagecheckerboard="0"
     inkscape:document-units="mm"
     showgrid="false"
     units="px"
     inkscape:zoom="0.37371282"
     inkscape:cx="366.59165"
     inkscape:cy="246.17833"
     inkscape:window-width="1920"
     inkscape:window-height="1011"
     inkscape:window-x="0"
     inkscape:window-y="32"
     inkscape:window-maximized="1"
     inkscape:current-layer="layer1" />
  <defs
     id="defs2" />
  <g
     inkscape:label="Layer 1"
     inkscape:groupmode="layer"
     id="layer1">
    <g
       id="g30381"
       transform="matrix(2.6213635,0,0,2.6213635,-206.32243,-372.67986)">
      <path
         style="fill:#ffdd00;fill-opacity:1;stroke:none;stroke-width:0.264583"
         d="m 117.03141,159.52951 c 1.34592,0.41429 0.55652,3.12442 0.34514,3.38617 -0.75067,0.92956 -2.2141,0.6428 -2.2141,0.6428 l -0.13396,2.39101 c 0,0 0.8168,-0.0335 0.9677,0.38569 0.24683,0.68571 0.36209,2.17394 -0.0618,3.12608 -0.12838,0.28837 -0.92084,0.6848 -0.92084,0.6848 0,0 0.005,4.0209 0.22748,5.16918 0.16927,0.87325 3.00866,1.12142 3.92809,0.33931 1.51289,-1.28693 -0.19523,-4.03656 1.0065,-5.46292 1.14644,-1.36049 4.31492,0.71926 4.92881,-1.6933 0.96283,-4.09333 -6.26813,-0.4276 -5.26747,-4.46462 0.49725,-2.01251 4.89903,-0.29188 6.52251,-1.41 1.15147,-0.79296 0.56092,-3.09565 -0.79217,-3.01544"
         id="path13265"
         sodipodi:nodetypes="csccsscssccccc" />
      <path
         style="fill:#ffb300;fill-opacity:1;stroke:none;stroke-width:0.264583"
         d="m 106.28191,159.57375 c 0,3.8172 0.69337,9.12424 0.0116,12.913 -0.21669,1.20491 -1.09851,2.4941 0.22649,3.40611 1.17751,0.81056 2.91307,0.17237 3.32145,-0.33195 0.82258,-1.01584 0.049,-4.68789 1.02901,-5.52161 1.26947,-1.07976 3.44857,0.3215 4.40922,-0.82427 0.5733,-0.68377 0.5154,-2.38063 0.0254,-2.6768 -1.44756,-0.87497 -4.95771,0.49096 -4.95771,-1.98671 0,-3.45593 5.24156,-0.37943 6.52585,-2.00241 0.77919,-0.98468 0.60399,-2.79924 -0.54267,-2.9857"
         id="path13263"
         sodipodi:nodetypes="cccscssssc" />
      <path
         style="fill:#ff8c00;fill-opacity:1;stroke:none;stroke-width:0.264583"
         d="m 92.597857,159.66142 c 1.038788,0.89604 1.166097,0.85569 2.030387,2.45003 0.722737,1.33321 0.577182,4.01895 0.216242,5.10429 -0.508789,1.52991 -1.66517,2.01556 -2.356893,2.59717 -0.408828,0.34375 -0.158126,1.24737 0.164789,2.28502 0.537429,1.72694 1.931645,3.33353 3.374556,3.80337 2.012585,0.65533 4.706662,0.0931 6.649202,-0.23858 4.2289,-0.72212 3.14845,-9.32853 3.14561,-15.05214 -6.5e-4,-1.30329 -3.51202,-1.32464 -3.53842,-0.18207 -0.0614,2.65537 0.2799,7.55727 -0.13417,10.18178 -0.26839,1.70074 -1.54123,2.60269 -3.288374,1.87508 -2.719256,-1.13268 -1.598931,-7.14613 -1.598931,-9.52156 0,-0.93138 0.11777,-2.84816 -0.607428,-3.28093"
         id="path13261"
         sodipodi:nodetypes="cssssscssccsc" />
      <path
         id="path4321"
         style="fill:#ff6600;fill-opacity:1;stroke:none;stroke-width:0.264583"
         d="m 82.692999,159.60547 c -0.623046,0.57081 -0.747643,13.06661 -0.316072,15.58222 0.279427,1.48511 2.231541,1.72256 3.487915,0.97935 1.841606,-1.08956 -0.04506,-4.5664 1.176291,-6.01897 1.6836,-0.83646 6.630688,0.55712 7.269313,-4.49218 0.677994,-5.36049 -3.004705,-6.21346 -7.222164,-6.21346 m 0.412836,3.41641 c 2.473219,-1.02196 4.85132,2.48298 2.076238,3.6127 -2.623661,1.06807 -4.586579,-2.57543 -2.076238,-3.6127 z"
         sodipodi:nodetypes="ccccscsss" />
    </g>
    <path
       style="fill:#000000;stroke-width:0.693569"
       id="path4175"
       d="" />
  </g>
</svg>
